<svg width="32" height="32" viewBox="0 0 32 32" fill="none" xmlns="http://www.w3.org/2000/svg">
<path fill-rule="evenodd" clip-rule="evenodd" d="M27.9998 27.0003C27.9998 27.2655 27.8944 27.5199 27.7069 27.7074C27.5194 27.8949 27.265 28.0003 26.9998 28.0003H14.9998C14.7346 28.0003 14.4802 27.8949 14.2927 27.7074C14.1052 27.5199 13.9998 27.2655 13.9998 27.0003C13.9998 26.7351 14.1052 26.4807 14.2927 26.2932C14.4802 26.1056 14.7346 26.0003 14.9998 26.0003H24.5858L4.2918 5.70829C4.19882 5.61531 4.12507 5.50493 4.07475 5.38345C4.02443 5.26197 3.99854 5.13177 3.99854 5.00029C3.99854 4.8688 4.02443 4.7386 4.07475 4.61712C4.12507 4.49564 4.19882 4.38526 4.2918 4.29229C4.38477 4.19931 4.49515 4.12556 4.61663 4.07524C4.73811 4.02492 4.86831 3.99902 4.9998 3.99902C5.13129 3.99902 5.26149 4.02492 5.38297 4.07524C5.50444 4.12556 5.61482 4.19931 5.7078 4.29229L25.9998 24.5863V15.0003C25.9998 14.7351 26.1052 14.4807 26.2927 14.2932C26.4802 14.1056 26.7346 14.0003 26.9998 14.0003C27.265 14.0003 27.5194 14.1056 27.7069 14.2932C27.8944 14.4807 27.9998 14.7351 27.9998 15.0003V27.0003Z" fill="#353333"/>
</svg>
