<svg width="40" height="40" viewBox="0 0 40 40" fill="none" xmlns="http://www.w3.org/2000/svg">
<circle cx="20" cy="20" r="19.5" stroke="#D9D9D9"/>
<path d="M30.7315 16.8498C30.5088 16.5701 30.1757 16.4077 29.824 16.4074H27.8681L22.5248 9.29226C22.4643 9.20024 22.3696 9.13823 22.2629 9.12083C22.1562 9.10316 22.0473 9.13178 21.9619 9.19968C21.8765 9.26729 21.8222 9.36858 21.8119 9.47884C21.8012 9.58938 21.8356 9.69936 21.9068 9.78297L26.894 16.4116H12.5662L17.8233 9.79899C17.8951 9.71707 17.9309 9.60849 17.9224 9.49878C17.9142 9.38909 17.8624 9.28752 17.7791 9.21793C17.6962 9.14863 17.589 9.11721 17.4828 9.13124C17.3764 9.14527 17.2804 9.20335 17.2171 9.29229L11.5414 16.4116H10.1722C9.8213 16.4119 9.48924 16.5735 9.26658 16.8524C9.04393 17.131 8.95443 17.4977 9.0221 17.8515L11.0328 28.2488V28.2486C11.1913 29.0706 11.6221 29.8108 12.2521 30.3424C12.8819 30.8743 13.6718 31.165 14.4868 31.1647H25.5134C26.3285 31.165 27.1181 30.8743 27.7481 30.3424C28.3779 29.8107 28.809 29.0706 28.9672 28.2486L30.9779 17.8512V17.8515C31.0458 17.4966 30.9555 17.1288 30.7315 16.8499L30.7315 16.8498ZM28.2125 28.0918C28.0884 28.7307 27.7527 29.3055 27.2627 29.7185C26.7726 30.1315 26.1587 30.3568 25.5251 30.3563H14.4824C13.8469 30.3596 13.23 30.1355 12.7376 29.7225C12.2453 29.3092 11.9078 28.7329 11.7834 28.0918L9.78475 17.6945C9.7621 17.5752 9.79321 17.4521 9.86933 17.3592C9.94518 17.2663 10.0579 17.2136 10.1757 17.2158H29.8241C29.9422 17.2136 30.0546 17.2663 30.1308 17.3592C30.2066 17.4521 30.2377 17.5752 30.2153 17.6945L28.2125 28.0918Z" fill="#353333"/>
<path d="M19.9982 21.4272C19.7821 21.4272 19.6069 21.6071 19.6069 21.8293V25.9441C19.6069 26.1663 19.7821 26.3461 19.9982 26.3461C20.2143 26.3461 20.3895 26.1663 20.3895 25.9441V21.8293C20.3895 21.7227 20.3483 21.6203 20.2749 21.5448C20.2015 21.4696 20.1019 21.4273 19.9982 21.4273L19.9982 21.4272Z" fill="#353333"/>
<path d="M23.9098 21.4272C23.6937 21.4272 23.5186 21.6071 23.5186 21.8293V25.9441C23.5186 26.1663 23.6937 26.3461 23.9098 26.3461C24.1259 26.3461 24.3011 26.1663 24.3011 25.9441V21.8293C24.3011 21.7227 24.2599 21.6203 24.1865 21.5448C24.1131 21.4696 24.0135 21.4273 23.9098 21.4273L23.9098 21.4272Z" fill="#353333"/>
<path d="M16.0866 21.4272C15.8705 21.4272 15.6953 21.6071 15.6953 21.8293V25.9441C15.6953 26.1663 15.8705 26.3461 16.0866 26.3461C16.3027 26.3461 16.4779 26.1663 16.4779 25.9441V21.8293C16.4779 21.7227 16.4367 21.6203 16.3633 21.5448C16.2899 21.4696 16.1903 21.4273 16.0866 21.4273L16.0866 21.4272Z" fill="#353333"/>
</svg>
