<svg width="35" height="35" viewBox="0 0 35 35" fill="none" xmlns="http://www.w3.org/2000/svg">
<path fill-rule="evenodd" clip-rule="evenodd" d="M7.89764 6.03971C7.25304 6.05847 6.51468 6.09905 6.25684 6.12991C4.36227 6.35668 3.0169 6.97829 1.9169 8.13511C0.712832 9.40145 0.198837 10.8479 0.0456329 13.4011C-0.0155458 14.4205 -0.0150769 21.4111 0.0462423 22.4834C0.197337 25.1258 0.709409 26.5888 1.93514 27.8798C3.02515 29.0278 4.44698 29.6528 6.51468 29.8926C7.87369 30.0502 16.1878 30.029 17.6487 29.8642C19.5554 29.6491 20.841 29.0909 21.9521 27.9957C22.9864 26.9762 23.6057 25.6188 23.8389 23.8605C24.0542 22.2361 24.0535 13.7578 23.8379 12.1231C23.437 9.08284 21.8737 7.16713 19.175 6.40884C18.365 6.18122 17.5592 6.0884 15.9539 6.0377C14.3325 5.98652 9.68678 5.9877 7.89764 6.03971ZM16.5236 8.19792C19.8312 8.42029 21.2793 9.55619 21.6777 12.2408C21.805 13.0986 21.8563 15.374 21.8307 19.0295C21.8071 22.4121 21.7846 22.9614 21.6305 23.9308C21.2973 26.027 20.0542 27.2778 17.9534 27.6308C17.088 27.7763 16.4458 27.8049 13.4764 27.8308C8.98226 27.87 6.6481 27.7838 5.59686 27.5399C3.90265 27.1467 2.82952 26.0753 2.38388 24.332C2.14052 23.3801 2.13138 23.154 2.13138 18.0914C2.13138 13.8382 2.13958 13.312 2.21553 12.706C2.47909 10.6018 3.1484 9.43879 4.47487 8.78013C4.94771 8.54538 5.71518 8.33201 6.42092 8.23915C7.29312 8.12437 14.9642 8.09309 16.5236 8.19792ZM17.9395 10.2324C16.9367 10.5903 16.6477 11.8492 17.3964 12.5982C17.6947 12.8966 17.957 13.0024 18.3988 13.0024C18.7144 13.0024 18.8161 12.9816 19.0402 12.8715C19.5147 12.6384 19.7828 12.2291 19.8184 11.6834C19.8499 11.2009 19.745 10.9177 19.4109 10.5839C19.2327 10.4057 19.075 10.2968 18.9179 10.2434C18.642 10.1495 18.1861 10.1444 17.9395 10.2324ZM10.9214 11.9272C9.74917 12.1398 8.64693 12.701 7.7796 13.5268C6.88306 14.3804 6.31745 15.3566 6.01193 16.5776C5.89787 17.0334 5.88531 17.1681 5.88362 17.9507C5.88114 19.1346 6.0289 19.807 6.49592 20.7361C7.41543 22.5654 9.15478 23.8091 11.1988 24.099C11.7978 24.184 12.8463 24.1292 13.4384 23.982C15.242 23.5337 16.6829 22.3816 17.5209 20.718C17.9417 19.8824 18.1404 19.001 18.1408 17.9686C18.1413 16.3351 17.5615 14.9049 16.4206 13.7258C15.4942 12.7682 14.3362 12.148 13.06 11.9258C12.5484 11.8367 11.4163 11.8374 10.9214 11.9272ZM12.8135 14.0813C13.5882 14.2414 14.231 14.5936 14.8172 15.1793C15.5597 15.9209 15.9294 16.7566 15.9728 17.7911C16.0005 18.4518 15.9473 18.8212 15.7432 19.3856C15.2799 20.6666 14.132 21.638 12.7525 21.9166C12.4528 21.9771 12.2252 21.9901 11.8149 21.97C11.1546 21.9377 10.8503 21.8592 10.2417 21.564C9.22796 21.0724 8.46775 20.164 8.15262 19.0677C8.01058 18.5734 7.97921 17.7569 8.08258 17.2444C8.40249 15.6584 9.60868 14.426 11.1793 14.0802C11.5654 13.9952 12.3996 13.9958 12.8135 14.0813Z" fill="#353333"/>
</svg>
