<svg width="40" height="40" viewBox="0 0 40 40" fill="none" xmlns="http://www.w3.org/2000/svg">
<g clip-path="url(#clip0_329_935)">
<path d="M39.9213 7.61588C38.4242 8.27401 36.8385 8.70865 35.2151 8.90588C36.9264 7.87875 38.2075 6.26631 38.8213 4.36713C37.2026 5.30588 35.4409 5.97266 33.6063 6.34088C32.3726 5.0227 30.7383 4.14854 28.9571 3.854C27.1758 3.55947 25.3472 3.86104 23.7548 4.71192C22.1625 5.56281 20.8954 6.91543 20.1503 8.55994C19.4052 10.2045 19.2236 12.0489 19.6338 13.8071C12.8176 13.4884 6.77506 10.2134 2.73381 5.26588C1.99815 6.51698 1.6134 7.94328 1.62006 9.39463C1.61906 10.7438 1.95124 12.0724 2.58711 13.2624C3.22298 14.4523 4.14286 15.4669 5.26506 16.2159C3.96459 16.1766 2.69245 15.8264 1.55506 15.1946V15.2934C1.55466 17.1872 2.20907 19.0228 3.40738 20.4893C4.60568 21.9557 6.27417 22.9627 8.13006 23.3396C7.42705 23.5275 6.70272 23.6237 5.97506 23.6259C5.44881 23.6259 4.94631 23.5746 4.44506 23.4821C4.97322 25.1118 5.99632 26.5362 7.37194 27.5572C8.74757 28.5782 10.4073 29.1448 12.1201 29.1784C9.21807 31.451 5.63729 32.6839 1.95131 32.6796C1.29844 32.6822 0.64601 32.6455 -0.00244141 32.5696C3.75767 34.979 8.13052 36.258 12.5963 36.2546C27.6801 36.2546 35.9226 23.7609 35.9226 12.9409C35.9226 12.5959 35.9226 12.2446 35.8963 11.8921C37.5087 10.7366 38.8982 9.29832 39.9976 7.64713L39.9213 7.61588Z" fill="white"/>
</g>
<defs>
<clipPath id="clip0_329_935">
<rect width="40" height="40" fill="white"/>
</clipPath>
</defs>
</svg>
