<svg width="23" height="23" viewBox="0 0 23 23" fill="none" xmlns="http://www.w3.org/2000/svg">
<g clip-path="url(#clip0_329_1139)">
<path d="M22.9547 4.37908C22.0938 4.75751 21.1821 5.00743 20.2486 5.12083C21.2326 4.53023 21.9693 3.60308 22.3222 2.51105C21.3915 3.05083 20.3785 3.43423 19.3236 3.64596C18.6142 2.88801 17.6745 2.38536 16.6503 2.216C15.626 2.04665 14.5746 2.22005 13.659 2.70931C12.7433 3.19856 12.0148 3.97632 11.5864 4.92192C11.1579 5.86751 11.0535 6.92807 11.2894 7.93905C7.37003 7.75577 3.8956 5.87264 1.57188 3.02783C1.14888 3.74722 0.927645 4.56734 0.931473 5.40186C0.930896 6.17765 1.1219 6.94158 1.48753 7.62582C1.85315 8.31005 2.38208 8.8934 3.02735 9.32408C2.27958 9.30148 1.5481 9.10012 0.894098 8.73686V8.79364C0.893869 9.88257 1.27015 10.9381 1.95918 11.7813C2.64821 12.6245 3.60759 13.2035 4.67472 13.4202C4.27049 13.5282 3.854 13.5836 3.4356 13.5848C3.133 13.5848 2.84407 13.5554 2.55585 13.5022C2.85954 14.4392 3.44782 15.2583 4.23881 15.8453C5.02979 16.4324 5.98413 16.7582 6.96897 16.7775C5.30033 18.0843 3.24138 18.7932 1.12194 18.7907C0.746543 18.7922 0.371395 18.7711 -0.00146484 18.7275C2.1606 20.1129 4.67498 20.8483 7.24282 20.8464C15.916 20.8464 20.6554 13.6625 20.6554 7.44096C20.6554 7.24258 20.6554 7.04061 20.6403 6.83793C21.5674 6.17347 22.3664 5.34648 22.9985 4.39705L22.9547 4.37908Z" fill="#848484"/>
</g>
<defs>
<clipPath id="clip0_329_1139">
<rect width="23" height="23" fill="white"/>
</clipPath>
</defs>
</svg>
